# xmcd
#
# Track frame offsets:
#	150
#	19050
#	40175
#	59337
#	76675
#	104837
#	125100
#	143150
#	162975
#	178562
#	198487
#	214437
#	234787
#	252550
#	274787
#	293825
#
# Disc length: 4305 seconds
#
# Revision: 1
# Processed by: cddbd v1.5.1PL0 Copyright (c) Steve Scherf et al.
# Submitted via: CDex 1.50Beta5
#
DISCID=ef10cf10
DTITLE=かぐや姫 - La Famille〜家族の詩〜
DYEAR=2003
DGENRE=
TTITLE0=かぐや姫/妹
TTITLE1=森山良子/さとうきび畑
TTITLE2=さだまさし/秋桜
TTITLE3=グレープ/無縁坂
TTITLE4=松山千春/ふるさと
TTITLE5=加藤登紀子/ANAK(息子)
TTITLE6=河島英五/野風増
TTITLE7=吉田拓郎/おやじの唄
TTITLE8=大塚博堂/娘をよろしく
TTITLE9=佐藤竹善/生まれ来る子供たちのために
TTITLE10=忌野清志郎/パパの歌
TTITLE11=松田聖子/Dear My Children
TTITLE12=小椋佳/木戸をあけて
TTITLE13=井上陽水/人生が二度あれば
TTITLE14=海援隊/故郷未だ忘れ難く
TTITLE15=谷村新司/群青
EXTD=
EXTT0=
EXTT1=
EXTT2=
EXTT3=
EXTT4=
EXTT5=
EXTT6=
EXTT7=
EXTT8=
EXTT9=
EXTT10=
EXTT11=
EXTT12=
EXTT13=
EXTT14=
EXTT15=
PLAYORDER=
